<svg xmlns="http://www.w3.org/2000/svg" xmlns:xlink="http://www.w3.org/1999/xlink" width="0" height="0" style="position:absolute">
	
		<symbol id="icon-check" viewBox="0 0 31 23">
			<defs><path id="a" d="M1215 622.5l3.18-3.2 8.19 8.2 16.45-16.51 3.19 3.2-16.45 16.5.12.12-3.18 3.2z"></path></defs><use fill="#66b045" xlink:href="#a" transform="translate(-1215 -611)"></use>
		</symbol>
	
		<symbol id="icon-mail" viewBox="0 0 31.012 31.012">
			<g fill="#933EC5"><path d="M28.512 26.529H2.5a2.503 2.503 0 0 1-2.5-2.5V6.982c0-1.379 1.122-2.5 2.5-2.5h26.012c1.378 0 2.5 1.121 2.5 2.5v17.047c0 1.379-1.122 2.5-2.5 2.5zM2.5 5.482c-.827 0-1.5.673-1.5 1.5v17.047c0 .827.673 1.5 1.5 1.5h26.012c.827 0 1.5-.673 1.5-1.5V6.982c0-.827-.673-1.5-1.5-1.5H2.5z"></path><path d="M15.506 18.018c-.665 0-1.33-.221-1.836-.662L.891 6.219a.5.5 0 1 1 .658-.754l12.778 11.137c.64.557 1.72.556 2.358 0L29.46 5.466a.497.497 0 0 1 .706.049.5.5 0 0 1-.048.705L17.342 17.355c-.506.442-1.171.663-1.836.663z"></path></g>
		</symbol>
	
		<symbol id="icon-metro-logo" viewBox="0 0 93.708 93.708">
			<path fill="#D80027" d="M77.32 8.732L47.379 51.248 16.795 9.721 0 79.253h22.728l4.164-22.238 20.117 27.961 20.012-27.348 4.026 21.748h22.661z"></path>
		</symbol>
	
		<symbol id="icon-phone-call" viewBox="0 0 29.735 29.735">
			<path d="M23.895 29.733c-1.237 0-2.731-.31-4.373-.929-3.603-1.359-7.521-4.043-11.035-7.557C4.973 17.733 2.289 13.814.93 10.21-.307 6.935-.31 4.247.92 3.017c.178-.178.359-.368.545-.563C2.588 1.274 3.887-.067 5.538.006c1.16.048 2.283.768 3.435 2.198 3.396 4.225 1.865 5.731.093 7.477l-.314.31c-.29.29-.839 1.632 4.26 6.73 1.666 1.665 3.084 2.883 4.217 3.62.715.464 1.991 1.164 2.514.641l.315-.318c1.744-1.77 3.25-3.296 7.474.099 1.431 1.15 2.15 2.273 2.198 3.434.069 1.682-1.271 2.954-2.453 4.076-.194.185-.384.364-.56.54-.614.613-1.59.92-2.822.92zM5.419 1.002c-1.194 0-2.274 1.136-3.229 2.14-.193.202-.38.399-.563.582-.916.915-.822 3.323.238 6.134 1.31 3.473 3.913 7.267 7.329 10.683s7.209 6.018 10.681 7.328c2.811 1.061 5.219 1.153 6.135.236.183-.182.378-.368.578-.558 1.028-.977 2.193-2.083 2.143-3.311-.035-.843-.649-1.75-1.826-2.695-3.52-2.828-4.503-1.828-6.135-.176l-.32.323c-.777.781-2.044.61-3.766-.51-1.19-.774-2.664-2.037-4.379-3.751-4.231-4.231-5.585-6.819-4.26-8.145l.319-.316c1.658-1.632 2.658-2.617-.171-6.137C7.247 1.654 6.34 1.04 5.497 1.004a2.083 2.083 0 0 0-.078-.002z" fill="#933EC5"></path><g fill="#933EC5"><path d="M24.07 12.29a.5.5 0 0 1-.463-.687 4.198 4.198 0 0 0-.924-4.552 4.23 4.23 0 0 0-4.703-.858.5.5 0 0 1-.412-.91 5.223 5.223 0 0 1 5.822 1.062 5.194 5.194 0 0 1 1.143 5.634.502.502 0 0 1-.463.311z"></path><path d="M28.534 14.102a.5.5 0 0 1-.463-.687 9.007 9.007 0 0 0-1.981-9.771 9.066 9.066 0 0 0-10.095-1.841.503.503 0 0 1-.662-.25.502.502 0 0 1 .25-.663C19.36-.816 23.866.005 26.797 2.936a10.001 10.001 0 0 1 2.2 10.854.5.5 0 0 1-.463.312z"></path></g>
		</symbol>
	
		<symbol id="icon-play-btn" viewBox="0 0 232.153 232.153">
			<path d="M203.791 99.628L49.307 2.294C44.74-.425 39.069.028 34.786.028 17.654.028 17.73 13.255 17.73 16.606v198.94c0 2.833-.075 16.579 17.056 16.579 4.283 0 9.955.451 14.521-2.267l154.483-97.333c12.68-7.545 10.489-16.449 10.489-16.449s2.192-8.904-10.488-16.448z" fill="#FFF" fill-rule="evenodd" clip-rule="evenodd"></path>
		</symbol>
	
</svg>
